<svg width="100%" height="100%" xmlns="http://www.w3.org/2000/svg">
    <g class="_33856c68-e08a-4a1f-8d77-4f7df97652ce" transform="translate(200,100) scale(1)"><path class="linkBase" d="M0,0L-35,35" style="opacity: 1;"></path><path class="linkBase" d="M0,0L35,35" style="opacity: 1;"></path><path class="linkBase" d="M-35,35L-52.5,70" style="opacity: 1;"></path><path class="linkBase" d="M-35,35L-17.5,70" style="opacity: 1;"></path><path class="linkBase" d="M-52.5,70L-70,105" style="opacity: 1;"></path><path class="linkBase" d="M-52.5,70L-35,105" style="opacity: 1;"></path><path class="linkBase" d="M35,35L17.5,70" style="opacity: 1;"></path><path class="linkBase" d="M35,35L52.5,70" style="opacity: 1;"></path><g id="31c05bcc-f33a-4c43-bf42-fe300f454ce6" class="nodeBase" transform="translate(0,0)" style="opacity: 1;"><circle r="12" fill="green" stroke="green"></circle><g><text class="nodeNameBase" x="-6" y="0" dy=".35em">M</text><text class="nodeAttributesBase" y="10"></text></g></g><g id="d48bd89b-bc3a-46ec-92dc-e4107a88967f" class="nodeBase" transform="translate(-35,35)" style="opacity: 1;"><circle r="12" fill="green" stroke="green"></circle><g><text class="nodeNameBase" x="-6" y="0" dy=".35em">H</text><text class="nodeAttributesBase" y="10"></text></g></g><g id="2e5680f3-f669-4b7c-a052-dda283cf19dc" class="nodeBase" transform="translate(-52.5,70)" style="opacity: 1;"><circle r="12" fill="green" stroke="green"></circle><g><text class="nodeNameBase" x="-6" y="0" dy=".35em">L</text><text class="nodeAttributesBase" y="10"></text></g></g><g id="d0814d1c-0b30-49b3-99c1-88897c435de1" class="leafNodeBase" transform="translate(-70,105)" style="opacity: 1;"><circle r="12" fill="green" stroke="green"></circle><g><text class="nodeNameBase" x="-6" y="0" dy=".35em">A</text><text class="nodeAttributesBase" y="10"></text></g></g><g id="8758fcf7-2839-4f84-9075-d31643777144" class="leafNodeBase" transform="translate(-35,105)" style="opacity: 1;"><circle r="12" fill="green" stroke="green"></circle><g><text class="nodeNameBase" x="-6" y="0" dy=".35em">C</text><text class="nodeAttributesBase" y="10"></text></g></g><g id="aa17ca7f-def7-4232-a03f-aa62fc2751c0" class="leafNodeBase" transform="translate(-17.5,70)" style="opacity: 1;"><circle r="12" fill="green" stroke="green"></circle><g><text class="nodeNameBase" x="-6" y="0" dy=".35em">E</text><text class="nodeAttributesBase" y="10"></text></g></g><g id="2c4d02d4-e762-458f-9cfc-ab0636529e1c" class="nodeBase" transform="translate(35,35)" style="opacity: 1;"><circle r="12" fill="green" stroke="green"></circle><g><text class="nodeNameBase" x="-6" y="0" dy=".35em">S</text><text class="nodeAttributesBase" y="10"></text></g></g><g id="6c8aeb92-cc86-4992-b892-ef463a4fde2e" class="leafNodeBase" transform="translate(17.5,70)" style="opacity: 1;"><circle r="12" fill="green" stroke="green"></circle><g><text class="nodeNameBase" x="-6" y="0" dy=".35em">I</text><text class="nodeAttributesBase" y="10"></text></g></g><g id="71df3b82-ad49-452b-98c7-33c0c2b9516e" class="leafNodeBase" transform="translate(52.5,70)" style="opacity: 1;"><circle r="12" fill="green" stroke="green"></circle><g><text class="nodeNameBase" x="-6" y="0" dy=".35em">T</text><text class="nodeAttributesBase" y="10"></text></g></g></g></svg>
